<?xml version="1.0" standalone="no"?><svg xmlns="http://www.w3.org/2000/svg" viewBox="0 0 1440 320"><path fill="#f3f4f5" fill-opacity="1" d="M0,320L16,309.3C32,299,64,277,96,240C128,203,160,149,192,149.3C224,149,256,203,288,229.3C320,256,352,256,384,245.3C416,235,448,213,480,181.3C512,149,544,107,576,106.7C608,107,640,149,672,170.7C704,192,736,192,768,176C800,160,832,128,864,133.3C896,139,928,181,960,202.7C992,224,1024,224,1056,218.7C1088,213,1120,203,1152,181.3C1184,160,1216,128,1248,112C1280,96,1312,96,1344,112C1376,128,1408,160,1424,176L1440,192L1440,0L1424,0C1408,0,1376,0,1344,0C1312,0,1280,0,1248,0C1216,0,1184,0,1152,0C1120,0,1088,0,1056,0C1024,0,992,0,960,0C928,0,896,0,864,0C832,0,800,0,768,0C736,0,704,0,672,0C640,0,608,0,576,0C544,0,512,0,480,0C448,0,416,0,384,0C352,0,320,0,288,0C256,0,224,0,192,0C160,0,128,0,96,0C64,0,32,0,16,0L0,0Z"></path></svg>